<mxfile host="app.diagrams.net" modified="2023-10-14T16:30:13.898Z" agent="Mozilla/5.0 (Windows NT 10.0; Win64; x64) AppleWebKit/537.36 (KHTML, like Gecko) Chrome/118.0.0.0 Safari/537.36" etag="ZnSq1oXwumNzZx_8l2x0" version="22.0.4" type="device">
  <diagram name="Страница — 1" id="RqbsXslpO_cdkqpg28u8">
    <mxGraphModel dx="859" dy="534" grid="1" gridSize="10" guides="1" tooltips="1" connect="1" arrows="1" fold="1" page="1" pageScale="1" pageWidth="827" pageHeight="1169" math="0" shadow="0">
      <root>
        <mxCell id="0" />
        <mxCell id="1" parent="0" />
        <mxCell id="_jVPbzLool0vAJ_2oPQA-1" value="User" style="swimlane;childLayout=stackLayout;horizontal=1;startSize=50;horizontalStack=0;rounded=1;fontSize=14;fontStyle=0;strokeWidth=2;resizeParent=0;resizeLast=1;shadow=0;dashed=0;align=center;arcSize=4;whiteSpace=wrap;html=1;" parent="1" vertex="1">
          <mxGeometry x="290" y="430" width="160" height="136" as="geometry" />
        </mxCell>
        <mxCell id="_jVPbzLool0vAJ_2oPQA-2" value="ID&lt;br&gt;Email&lt;br&gt;Nickname&lt;br&gt;Password&lt;br&gt;Token (for reset password)" style="align=left;strokeColor=none;fillColor=none;spacingLeft=4;fontSize=12;verticalAlign=top;resizable=0;rotatable=0;part=1;html=1;" parent="_jVPbzLool0vAJ_2oPQA-1" vertex="1">
          <mxGeometry y="50" width="160" height="86" as="geometry" />
        </mxCell>
        <mxCell id="_jVPbzLool0vAJ_2oPQA-3" value="Tel" style="swimlane;childLayout=stackLayout;horizontal=1;startSize=50;horizontalStack=0;rounded=1;fontSize=14;fontStyle=0;strokeWidth=2;resizeParent=0;resizeLast=1;shadow=0;dashed=0;align=center;arcSize=4;whiteSpace=wrap;html=1;" parent="1" vertex="1">
          <mxGeometry x="30" y="700" width="160" height="120" as="geometry" />
        </mxCell>
        <mxCell id="_jVPbzLool0vAJ_2oPQA-4" value="ID&lt;br&gt;TelNumber&lt;br&gt;Rating&lt;br&gt;ViewsCount" style="align=left;strokeColor=none;fillColor=none;spacingLeft=4;fontSize=12;verticalAlign=top;resizable=0;rotatable=0;part=1;html=1;" parent="_jVPbzLool0vAJ_2oPQA-3" vertex="1">
          <mxGeometry y="50" width="160" height="70" as="geometry" />
        </mxCell>
        <mxCell id="_jVPbzLool0vAJ_2oPQA-7" value="Comment" style="swimlane;childLayout=stackLayout;horizontal=1;startSize=50;horizontalStack=0;rounded=1;fontSize=14;fontStyle=0;strokeWidth=2;resizeParent=0;resizeLast=1;shadow=0;dashed=0;align=center;arcSize=4;whiteSpace=wrap;html=1;" parent="1" vertex="1">
          <mxGeometry x="290" y="640" width="160" height="191" as="geometry" />
        </mxCell>
        <mxCell id="_jVPbzLool0vAJ_2oPQA-8" value="ID&lt;br&gt;UserId&lt;br&gt;Username (if not authorized)&lt;br&gt;TelId&lt;br&gt;Description&lt;br&gt;Rating&lt;br&gt;Type&lt;br&gt;CreatedAt&lt;br&gt;UpdatedAt" style="align=left;spacingLeft=4;fontSize=12;verticalAlign=top;resizable=0;rotatable=0;part=1;html=1;" parent="_jVPbzLool0vAJ_2oPQA-7" vertex="1">
          <mxGeometry y="50" width="160" height="141" as="geometry" />
        </mxCell>
        <mxCell id="_jVPbzLool0vAJ_2oPQA-11" value="" style="edgeStyle=entityRelationEdgeStyle;fontSize=12;html=1;endArrow=ERoneToMany;rounded=0;exitX=1;exitY=0.5;exitDx=0;exitDy=0;entryX=1;entryY=0.25;entryDx=0;entryDy=0;" parent="1" source="_jVPbzLool0vAJ_2oPQA-2" target="_jVPbzLool0vAJ_2oPQA-8" edge="1">
          <mxGeometry width="100" height="100" relative="1" as="geometry">
            <mxPoint x="410" y="740" as="sourcePoint" />
            <mxPoint x="510" y="640" as="targetPoint" />
            <Array as="points">
              <mxPoint x="440" y="620" />
            </Array>
          </mxGeometry>
        </mxCell>
        <mxCell id="_jVPbzLool0vAJ_2oPQA-12" value="" style="edgeStyle=entityRelationEdgeStyle;fontSize=12;html=1;endArrow=ERoneToMany;rounded=0;exitX=1.018;exitY=0.35;exitDx=0;exitDy=0;exitPerimeter=0;entryX=-0.019;entryY=0.347;entryDx=0;entryDy=0;entryPerimeter=0;" parent="1" source="_jVPbzLool0vAJ_2oPQA-4" target="_jVPbzLool0vAJ_2oPQA-8" edge="1">
          <mxGeometry width="100" height="100" relative="1" as="geometry">
            <mxPoint x="410" y="740" as="sourcePoint" />
            <mxPoint x="510" y="640" as="targetPoint" />
          </mxGeometry>
        </mxCell>
      </root>
    </mxGraphModel>
  </diagram>
</mxfile>
